<svg xmlns="http://www.w3.org/2000/svg" xmlns:xlink="http://www.w3.org/1999/xlink" width="80" zoomAndPan="magnify" viewBox="0 0 60 60" height="80" preserveAspectRatio="xMidYMid meet" version="1.0"><path fill="#00df5e" d="M 40.535156 16.90625 L 40.347656 17.882812 C 40.058594 19.734375 40.164062 20.265625 40.957031 20.953125 L 41.726562 21.585938 L 40.929688 25.132812 C 40.453125 27.246094 39.871094 29.019531 39.503906 29.601562 C 39.183594 30.105469 38.816406 30.84375 38.734375 31.242188 C 38.601562 31.71875 38.152344 32.195312 37.464844 32.617188 C 36.859375 32.960938 35.664062 33.886719 34.820312 34.628906 C 34.144531 35.238281 33.679688 35.609375 33.425781 35.769531 L 32.601562 36.421875 C 32.335938 36.847656 32.1875 37.191406 32.128906 37.449219 C 32.074219 37.71875 32.105469 37.894531 32.191406 38.023438 C 32.273438 38.148438 32.414062 38.238281 32.609375 38.292969 C 32.84375 38.347656 33.078125 38.367188 33.316406 38.351562 C 33.851562 38.3125 34.378906 38.21875 34.894531 38.070312 C 35.070312 38.023438 35.207031 37.976562 35.328125 37.9375 C 35.511719 37.710938 35.941406 37.28125 36.699219 36.53125 C 38.707031 34.550781 39.476562 33.464844 38.683594 33.757812 C 38.390625 33.863281 38.523438 33.597656 39.023438 33.066406 C 40.085938 32.035156 40.691406 30.476562 41.960938 25.582031 C 42.96875 21.71875 42.96875 21.664062 43.707031 21.664062 C 44.054688 21.664062 45.039062 21.726562 45.039062 21.726562 L 45.039062 16.90625 Z M 50.132812 24.816406 C 49.972656 24.816406 49.707031 25.058594 49.550781 25.324219 C 49.261719 25.796875 49.601562 26.085938 53.96875 28.8125 C 56.558594 30.453125 58.648438 31.855469 58.597656 31.960938 C 58.546875 32.039062 56.425781 33.417969 53.890625 35.003906 C 49.285156 37.859375 49.261719 37.886719 49.683594 38.46875 C 50.210938 39.15625 49.683594 39.394531 55.660156 35.664062 L 60 32.886719 L 60 30.796875 L 55.15625 27.808594 C 52.539062 26.167969 50.265625 24.84375 50.132812 24.816406 Z M 9.921875 25.109375 C 9.789062 25.109375 7.511719 26.460938 4.894531 28.074219 L 0 31.0625 L 0 33.152344 L 4.867188 36.195312 C 7.566406 37.859375 9.84375 39.238281 9.949219 39.238281 C 10.050781 39.238281 10.265625 38.996094 10.476562 38.707031 C 10.796875 38.203125 10.527344 37.992188 6.058594 35.164062 C 1.800781 32.488281 1.351562 32.121094 1.773438 31.828125 C 2.039062 31.644531 4.050781 30.398438 6.21875 29.050781 C 11.167969 26.011719 10.902344 26.21875 10.503906 25.585938 C 10.347656 25.324219 10.078125 25.085938 9.921875 25.109375 Z M 31.628906 25.167969 C 30.898438 25.164062 29.328125 26.273438 24.628906 30.113281 C 24.425781 30.59375 24.410156 30.925781 24.503906 31.140625 C 24.5625 31.289062 24.671875 31.390625 24.824219 31.46875 C 24.976562 31.542969 25.171875 31.585938 25.386719 31.605469 C 25.8125 31.640625 26.316406 31.574219 26.726562 31.496094 L 27 31.433594 C 27.09375 31.304688 27.214844 31.207031 27.359375 31.136719 C 27.648438 30.976562 28.867188 29.867188 30.085938 28.675781 C 32.226562 26.507812 32.730469 25.527344 31.859375 25.210938 C 31.785156 25.179688 31.710938 25.167969 31.632812 25.167969 Z M 37.121094 26.675781 C 36.476562 26.691406 35.320312 27.4375 33.335938 29.019531 C 32.34375 29.828125 31.710938 30.261719 31.375 30.351562 L 30.066406 31.386719 C 29.574219 32.289062 29.5 32.84375 29.628906 33.152344 C 29.699219 33.3125 29.8125 33.421875 29.976562 33.488281 C 30.167969 33.5625 30.367188 33.601562 30.574219 33.601562 C 31.066406 33.59375 31.550781 33.523438 32.023438 33.386719 C 32.269531 33.320312 32.511719 33.246094 32.753906 33.15625 L 32.824219 33.128906 L 32.957031 33.058594 C 33.207031 32.734375 33.78125 32.128906 34.503906 31.425781 C 36.777344 29.234375 37.941406 27.671875 37.703125 27.089844 C 37.59375 26.808594 37.410156 26.664062 37.121094 26.675781 Z M 31.058594 29.375 C 30.875 29.394531 30.460938 29.714844 29.710938 30.371094 C 28.632812 31.324219 27.453125 31.875 27.046875 31.628906 C 26.953125 31.652344 26.859375 31.671875 26.761719 31.691406 C 26.347656 31.773438 25.828125 31.839844 25.367188 31.800781 C 25.148438 31.789062 24.9375 31.738281 24.738281 31.644531 C 24.542969 31.554688 24.402344 31.414062 24.316406 31.21875 C 24.226562 30.996094 24.226562 30.714844 24.328125 30.359375 L 22.703125 31.691406 L 19.027344 34.734375 L 19.027344 39.667969 L 31.078125 30.175781 C 31.074219 30.070312 31.089844 29.96875 31.117188 29.867188 C 31.210938 29.53125 31.203125 29.363281 31.058594 29.378906 Z M 36.246094 30.972656 C 36.0625 30.972656 35.757812 31.230469 35.269531 31.746094 C 34.609375 32.453125 33.566406 33.140625 33.011719 33.28125 L 32.925781 33.324219 C 32.835938 33.363281 32.746094 33.398438 32.652344 33.429688 C 32.503906 33.480469 32.308594 33.539062 32.082031 33.601562 C 31.632812 33.722656 31.074219 33.835938 30.574219 33.824219 C 30.335938 33.820312 30.105469 33.777344 29.886719 33.6875 C 29.671875 33.597656 29.519531 33.449219 29.425781 33.238281 C 29.28125 32.890625 29.335938 32.402344 29.65625 31.710938 L 19.023438 40.082031 L 19.023438 43.09375 L 23.695312 43.09375 L 33.601562 35.316406 C 33.859375 35.03125 34.246094 34.640625 34.765625 34.152344 C 36.167969 32.855469 36.484375 32.40625 36.484375 31.746094 C 36.484375 31.230469 36.425781 30.96875 36.246094 30.96875 Z M 38.601562 35.847656 L 37.753906 36.691406 C 37.28125 37.140625 36.433594 37.699219 35.851562 37.933594 L 35.738281 37.984375 L 35.730469 37.996094 L 35.703125 38.023438 C 35.683594 38.039062 35.671875 38.042969 35.65625 38.050781 C 35.421875 38.136719 35.1875 38.214844 34.949219 38.28125 C 34.417969 38.4375 33.878906 38.53125 33.324219 38.570312 C 33.0625 38.585938 32.804688 38.5625 32.550781 38.503906 C 32.320312 38.453125 32.140625 38.332031 32.003906 38.140625 C 31.886719 37.957031 31.851562 37.710938 31.917969 37.40625 C 31.972656 37.1875 32.050781 36.980469 32.15625 36.78125 L 24.164062 43.09375 L 34.792969 43.09375 L 36.0625 41.640625 C 37.808594 39.605469 38.601562 38.148438 38.601562 36.90625 Z M 38.601562 35.847656 " fill-opacity="1" fill-rule="nonzero"/></svg>