<svg xmlns="http://www.w3.org/2000/svg" xmlns:xlink="http://www.w3.org/1999/xlink" width="300" zoomAndPan="magnify" viewBox="0 0 224.87999 97.5" height="130" preserveAspectRatio="xMidYMid meet" version="1.0"><defs><g/><clipPath id="ce4ced222d"><path d="M 0.515625 0 L 224.246094 0 L 224.246094 97.003906 L 0.515625 97.003906 Z M 0.515625 0 " clip-rule="nonzero"/></clipPath></defs><g clip-path="url(#ce4ced222d)"><path fill="#ffffff" d="M 0.515625 0 L 224.367188 0 L 224.367188 104.464844 L 0.515625 104.464844 Z M 0.515625 0 " fill-opacity="1" fill-rule="nonzero"/><path fill="#ffffff" d="M 0.515625 0 L 224.367188 0 L 224.367188 97.003906 L 0.515625 97.003906 Z M 0.515625 0 " fill-opacity="1" fill-rule="nonzero"/><path fill="#102526" d="M 0.515625 0 L 224.367188 0 L 224.367188 97.003906 L 0.515625 97.003906 Z M 0.515625 0 " fill-opacity="1" fill-rule="nonzero"/></g><g fill="#ffffff" fill-opacity="1"><g transform="translate(36.472725, 62.563853)"><g><path d="M 4.421875 -6.546875 C 3.960938 -6.546875 3.601562 -6.398438 3.34375 -6.109375 C 3.082031 -5.816406 2.929688 -5.40625 2.890625 -4.875 L 5.9375 -4.875 C 5.925781 -5.40625 5.785156 -5.816406 5.515625 -6.109375 C 5.242188 -6.398438 4.878906 -6.546875 4.421875 -6.546875 Z M 4.71875 0.140625 C 3.445312 0.140625 2.453125 -0.207031 1.734375 -0.90625 C 1.015625 -1.613281 0.65625 -2.613281 0.65625 -3.90625 C 0.65625 -5.238281 0.984375 -6.265625 1.640625 -6.984375 C 2.304688 -7.710938 3.226562 -8.078125 4.40625 -8.078125 C 5.53125 -8.078125 6.40625 -7.757812 7.03125 -7.125 C 7.65625 -6.488281 7.96875 -5.609375 7.96875 -4.484375 L 7.96875 -3.421875 L 2.84375 -3.421875 C 2.863281 -2.804688 3.046875 -2.328125 3.390625 -1.984375 C 3.734375 -1.640625 4.210938 -1.46875 4.828125 -1.46875 C 5.304688 -1.46875 5.753906 -1.515625 6.171875 -1.609375 C 6.597656 -1.710938 7.046875 -1.875 7.515625 -2.09375 L 7.515625 -0.421875 C 7.140625 -0.234375 6.734375 -0.09375 6.296875 0 C 5.867188 0.09375 5.34375 0.140625 4.71875 0.140625 Z M 4.71875 0.140625 "/></g></g></g><g fill="#ffffff" fill-opacity="1"><g transform="translate(45.061338, 62.563853)"><g><path d="M 8.234375 0 L 6.078125 0 L 6.078125 -4.640625 C 6.078125 -5.203125 5.976562 -5.625 5.78125 -5.90625 C 5.59375 -6.195312 5.289062 -6.34375 4.875 -6.34375 C 4.320312 -6.34375 3.921875 -6.140625 3.671875 -5.734375 C 3.421875 -5.328125 3.296875 -4.660156 3.296875 -3.734375 L 3.296875 0 L 1.140625 0 L 1.140625 -7.9375 L 2.78125 -7.9375 L 3.078125 -6.921875 L 3.203125 -6.921875 C 3.410156 -7.285156 3.710938 -7.566406 4.109375 -7.765625 C 4.515625 -7.972656 4.976562 -8.078125 5.5 -8.078125 C 6.6875 -8.078125 7.492188 -7.691406 7.921875 -6.921875 L 8.109375 -6.921875 C 8.316406 -7.285156 8.628906 -7.566406 9.046875 -7.765625 C 9.460938 -7.972656 9.929688 -8.078125 10.453125 -8.078125 C 11.347656 -8.078125 12.023438 -7.847656 12.484375 -7.390625 C 12.953125 -6.929688 13.1875 -6.191406 13.1875 -5.171875 L 13.1875 0 L 11.015625 0 L 11.015625 -4.640625 C 11.015625 -5.203125 10.914062 -5.625 10.71875 -5.90625 C 10.53125 -6.195312 10.226562 -6.34375 9.8125 -6.34375 C 9.289062 -6.34375 8.894531 -6.15625 8.625 -5.78125 C 8.363281 -5.40625 8.234375 -4.804688 8.234375 -3.984375 Z M 8.234375 0 "/></g></g></g><g fill="#ffffff" fill-opacity="1"><g transform="translate(59.335472, 62.563853)"><g/></g></g><g fill="#ffffff" fill-opacity="1"><g transform="translate(63.111623, 62.563853)"><g><path d="M 3.640625 0.140625 C 2.710938 0.140625 1.984375 -0.21875 1.453125 -0.9375 C 0.921875 -1.664062 0.65625 -2.671875 0.65625 -3.953125 C 0.65625 -5.253906 0.925781 -6.265625 1.46875 -6.984375 C 2.007812 -7.710938 2.753906 -8.078125 3.703125 -8.078125 C 4.703125 -8.078125 5.460938 -7.691406 5.984375 -6.921875 L 6.0625 -6.921875 C 5.945312 -7.515625 5.890625 -8.039062 5.890625 -8.5 L 5.890625 -11.046875 L 8.0625 -11.046875 L 8.0625 0 L 6.40625 0 L 5.984375 -1.03125 L 5.890625 -1.03125 C 5.398438 -0.25 4.648438 0.140625 3.640625 0.140625 Z M 4.40625 -1.578125 C 4.957031 -1.578125 5.363281 -1.738281 5.625 -2.0625 C 5.882812 -2.382812 6.023438 -2.929688 6.046875 -3.703125 L 6.046875 -3.9375 C 6.046875 -4.789062 5.910156 -5.398438 5.640625 -5.765625 C 5.378906 -6.140625 4.957031 -6.328125 4.375 -6.328125 C 3.882812 -6.328125 3.503906 -6.117188 3.234375 -5.703125 C 2.972656 -5.296875 2.84375 -4.703125 2.84375 -3.921875 C 2.84375 -3.140625 2.976562 -2.550781 3.25 -2.15625 C 3.519531 -1.769531 3.90625 -1.578125 4.40625 -1.578125 Z M 4.40625 -1.578125 "/></g></g></g><g fill="#ffffff" fill-opacity="1"><g transform="translate(72.310667, 62.563853)"><g><path d="M 4.421875 -6.546875 C 3.960938 -6.546875 3.601562 -6.398438 3.34375 -6.109375 C 3.082031 -5.816406 2.929688 -5.40625 2.890625 -4.875 L 5.9375 -4.875 C 5.925781 -5.40625 5.785156 -5.816406 5.515625 -6.109375 C 5.242188 -6.398438 4.878906 -6.546875 4.421875 -6.546875 Z M 4.71875 0.140625 C 3.445312 0.140625 2.453125 -0.207031 1.734375 -0.90625 C 1.015625 -1.613281 0.65625 -2.613281 0.65625 -3.90625 C 0.65625 -5.238281 0.984375 -6.265625 1.640625 -6.984375 C 2.304688 -7.710938 3.226562 -8.078125 4.40625 -8.078125 C 5.53125 -8.078125 6.40625 -7.757812 7.03125 -7.125 C 7.65625 -6.488281 7.96875 -5.609375 7.96875 -4.484375 L 7.96875 -3.421875 L 2.84375 -3.421875 C 2.863281 -2.804688 3.046875 -2.328125 3.390625 -1.984375 C 3.734375 -1.640625 4.210938 -1.46875 4.828125 -1.46875 C 5.304688 -1.46875 5.753906 -1.515625 6.171875 -1.609375 C 6.597656 -1.710938 7.046875 -1.875 7.515625 -2.09375 L 7.515625 -0.421875 C 7.140625 -0.234375 6.734375 -0.09375 6.296875 0 C 5.867188 0.09375 5.34375 0.140625 4.71875 0.140625 Z M 4.71875 0.140625 "/></g></g></g><g fill="#ffffff" fill-opacity="1"><g transform="translate(80.89928, 62.563853)"><g><path d="M 6.671875 -2.359375 C 6.671875 -1.546875 6.382812 -0.925781 5.8125 -0.5 C 5.25 -0.0703125 4.40625 0.140625 3.28125 0.140625 C 2.707031 0.140625 2.21875 0.0976562 1.8125 0.015625 C 1.40625 -0.0546875 1.023438 -0.164062 0.671875 -0.3125 L 0.671875 -2.109375 C 1.066406 -1.921875 1.515625 -1.757812 2.015625 -1.625 C 2.523438 -1.5 2.972656 -1.4375 3.359375 -1.4375 C 4.140625 -1.4375 4.53125 -1.664062 4.53125 -2.125 C 4.53125 -2.289062 4.476562 -2.425781 4.375 -2.53125 C 4.269531 -2.644531 4.085938 -2.765625 3.828125 -2.890625 C 3.578125 -3.023438 3.238281 -3.1875 2.8125 -3.375 C 2.207031 -3.625 1.757812 -3.859375 1.46875 -4.078125 C 1.1875 -4.296875 0.976562 -4.546875 0.84375 -4.828125 C 0.71875 -5.109375 0.65625 -5.457031 0.65625 -5.875 C 0.65625 -6.570312 0.925781 -7.113281 1.46875 -7.5 C 2.019531 -7.882812 2.796875 -8.078125 3.796875 -8.078125 C 4.753906 -8.078125 5.679688 -7.867188 6.578125 -7.453125 L 5.9375 -5.890625 C 5.53125 -6.066406 5.15625 -6.207031 4.8125 -6.3125 C 4.46875 -6.425781 4.117188 -6.484375 3.765625 -6.484375 C 3.117188 -6.484375 2.796875 -6.304688 2.796875 -5.953125 C 2.796875 -5.765625 2.898438 -5.597656 3.109375 -5.453125 C 3.316406 -5.316406 3.769531 -5.109375 4.46875 -4.828125 C 5.082031 -4.578125 5.535156 -4.34375 5.828125 -4.125 C 6.117188 -3.90625 6.332031 -3.648438 6.46875 -3.359375 C 6.601562 -3.078125 6.671875 -2.742188 6.671875 -2.359375 Z M 6.671875 -2.359375 "/></g></g></g><g fill="#ffffff" fill-opacity="1"><g transform="translate(88.125071, 62.563853)"><g><path d="M 4.421875 -6.546875 C 3.960938 -6.546875 3.601562 -6.398438 3.34375 -6.109375 C 3.082031 -5.816406 2.929688 -5.40625 2.890625 -4.875 L 5.9375 -4.875 C 5.925781 -5.40625 5.785156 -5.816406 5.515625 -6.109375 C 5.242188 -6.398438 4.878906 -6.546875 4.421875 -6.546875 Z M 4.71875 0.140625 C 3.445312 0.140625 2.453125 -0.207031 1.734375 -0.90625 C 1.015625 -1.613281 0.65625 -2.613281 0.65625 -3.90625 C 0.65625 -5.238281 0.984375 -6.265625 1.640625 -6.984375 C 2.304688 -7.710938 3.226562 -8.078125 4.40625 -8.078125 C 5.53125 -8.078125 6.40625 -7.757812 7.03125 -7.125 C 7.65625 -6.488281 7.96875 -5.609375 7.96875 -4.484375 L 7.96875 -3.421875 L 2.84375 -3.421875 C 2.863281 -2.804688 3.046875 -2.328125 3.390625 -1.984375 C 3.734375 -1.640625 4.210938 -1.46875 4.828125 -1.46875 C 5.304688 -1.46875 5.753906 -1.515625 6.171875 -1.609375 C 6.597656 -1.710938 7.046875 -1.875 7.515625 -2.09375 L 7.515625 -0.421875 C 7.140625 -0.234375 6.734375 -0.09375 6.296875 0 C 5.867188 0.09375 5.34375 0.140625 4.71875 0.140625 Z M 4.71875 0.140625 "/></g></g></g><g fill="#ffffff" fill-opacity="1"><g transform="translate(96.713685, 62.563853)"><g><path d="M 8.453125 0 L 6.296875 0 L 6.296875 -4.640625 C 6.296875 -5.203125 6.191406 -5.625 5.984375 -5.90625 C 5.785156 -6.195312 5.460938 -6.34375 5.015625 -6.34375 C 4.410156 -6.34375 3.972656 -6.140625 3.703125 -5.734375 C 3.429688 -5.335938 3.296875 -4.671875 3.296875 -3.734375 L 3.296875 0 L 1.140625 0 L 1.140625 -7.9375 L 2.78125 -7.9375 L 3.078125 -6.921875 L 3.203125 -6.921875 C 3.441406 -7.304688 3.769531 -7.59375 4.1875 -7.78125 C 4.613281 -7.976562 5.097656 -8.078125 5.640625 -8.078125 C 6.566406 -8.078125 7.265625 -7.828125 7.734375 -7.328125 C 8.210938 -6.828125 8.453125 -6.109375 8.453125 -5.171875 Z M 8.453125 0 "/></g></g></g><g fill="#ffffff" fill-opacity="1"><g transform="translate(106.267633, 62.563853)"><g><path d="M 3.015625 0 L 0 -7.9375 L 2.265625 -7.9375 L 3.796875 -3.40625 C 3.960938 -2.832031 4.066406 -2.289062 4.109375 -1.78125 L 4.15625 -1.78125 C 4.175781 -2.238281 4.285156 -2.78125 4.484375 -3.40625 L 6 -7.9375 L 8.265625 -7.9375 L 5.25 0 Z M 3.015625 0 "/></g></g></g><g fill="#ffffff" fill-opacity="1"><g transform="translate(114.536833, 62.563853)"><g><path d="M 2.859375 -3.984375 C 2.859375 -3.191406 2.988281 -2.59375 3.25 -2.1875 C 3.507812 -1.789062 3.925781 -1.59375 4.5 -1.59375 C 5.082031 -1.59375 5.5 -1.789062 5.75 -2.1875 C 6 -2.59375 6.125 -3.191406 6.125 -3.984375 C 6.125 -4.765625 5.992188 -5.351562 5.734375 -5.75 C 5.484375 -6.144531 5.066406 -6.34375 4.484375 -6.34375 C 3.910156 -6.34375 3.492188 -6.144531 3.234375 -5.75 C 2.984375 -5.363281 2.859375 -4.773438 2.859375 -3.984375 Z M 8.34375 -3.984375 C 8.34375 -2.691406 8 -1.679688 7.3125 -0.953125 C 6.632812 -0.222656 5.691406 0.140625 4.484375 0.140625 C 3.710938 0.140625 3.035156 -0.0234375 2.453125 -0.359375 C 1.878906 -0.691406 1.4375 -1.171875 1.125 -1.796875 C 0.8125 -2.421875 0.65625 -3.148438 0.65625 -3.984375 C 0.65625 -5.273438 0.992188 -6.28125 1.671875 -7 C 2.347656 -7.71875 3.296875 -8.078125 4.515625 -8.078125 C 5.273438 -8.078125 5.945312 -7.910156 6.53125 -7.578125 C 7.113281 -7.253906 7.5625 -6.78125 7.875 -6.15625 C 8.1875 -5.539062 8.34375 -4.816406 8.34375 -3.984375 Z M 8.34375 -3.984375 "/></g></g></g><g fill="#ffffff" fill-opacity="1"><g transform="translate(123.537132, 62.563853)"><g><path d="M 3.296875 0 L 1.140625 0 L 1.140625 -11.046875 L 3.296875 -11.046875 Z M 3.296875 0 "/></g></g></g><g fill="#ffffff" fill-opacity="1"><g transform="translate(127.973397, 62.563853)"><g><path d="M 3.015625 0 L 0 -7.9375 L 2.265625 -7.9375 L 3.796875 -3.40625 C 3.960938 -2.832031 4.066406 -2.289062 4.109375 -1.78125 L 4.15625 -1.78125 C 4.175781 -2.238281 4.285156 -2.78125 4.484375 -3.40625 L 6 -7.9375 L 8.265625 -7.9375 L 5.25 0 Z M 3.015625 0 "/></g></g></g><g fill="#ffffff" fill-opacity="1"><g transform="translate(136.242598, 62.563853)"><g><path d="M 1.046875 -9.984375 C 1.046875 -10.691406 1.4375 -11.046875 2.21875 -11.046875 C 3.007812 -11.046875 3.40625 -10.691406 3.40625 -9.984375 C 3.40625 -9.648438 3.304688 -9.390625 3.109375 -9.203125 C 2.910156 -9.015625 2.613281 -8.921875 2.21875 -8.921875 C 1.4375 -8.921875 1.046875 -9.273438 1.046875 -9.984375 Z M 3.296875 0 L 1.140625 0 L 1.140625 -7.9375 L 3.296875 -7.9375 Z M 3.296875 0 "/></g></g></g><g fill="#ffffff" fill-opacity="1"><g transform="translate(140.67887, 62.563853)"><g><path d="M 8.234375 0 L 6.078125 0 L 6.078125 -4.640625 C 6.078125 -5.203125 5.976562 -5.625 5.78125 -5.90625 C 5.59375 -6.195312 5.289062 -6.34375 4.875 -6.34375 C 4.320312 -6.34375 3.921875 -6.140625 3.671875 -5.734375 C 3.421875 -5.328125 3.296875 -4.660156 3.296875 -3.734375 L 3.296875 0 L 1.140625 0 L 1.140625 -7.9375 L 2.78125 -7.9375 L 3.078125 -6.921875 L 3.203125 -6.921875 C 3.410156 -7.285156 3.710938 -7.566406 4.109375 -7.765625 C 4.515625 -7.972656 4.976562 -8.078125 5.5 -8.078125 C 6.6875 -8.078125 7.492188 -7.691406 7.921875 -6.921875 L 8.109375 -6.921875 C 8.316406 -7.285156 8.628906 -7.566406 9.046875 -7.765625 C 9.460938 -7.972656 9.929688 -8.078125 10.453125 -8.078125 C 11.347656 -8.078125 12.023438 -7.847656 12.484375 -7.390625 C 12.953125 -6.929688 13.1875 -6.191406 13.1875 -5.171875 L 13.1875 0 L 11.015625 0 L 11.015625 -4.640625 C 11.015625 -5.203125 10.914062 -5.625 10.71875 -5.90625 C 10.53125 -6.195312 10.226562 -6.34375 9.8125 -6.34375 C 9.289062 -6.34375 8.894531 -6.15625 8.625 -5.78125 C 8.363281 -5.40625 8.234375 -4.804688 8.234375 -3.984375 Z M 8.234375 0 "/></g></g></g><g fill="#ffffff" fill-opacity="1"><g transform="translate(154.953004, 62.563853)"><g><path d="M 4.421875 -6.546875 C 3.960938 -6.546875 3.601562 -6.398438 3.34375 -6.109375 C 3.082031 -5.816406 2.929688 -5.40625 2.890625 -4.875 L 5.9375 -4.875 C 5.925781 -5.40625 5.785156 -5.816406 5.515625 -6.109375 C 5.242188 -6.398438 4.878906 -6.546875 4.421875 -6.546875 Z M 4.71875 0.140625 C 3.445312 0.140625 2.453125 -0.207031 1.734375 -0.90625 C 1.015625 -1.613281 0.65625 -2.613281 0.65625 -3.90625 C 0.65625 -5.238281 0.984375 -6.265625 1.640625 -6.984375 C 2.304688 -7.710938 3.226562 -8.078125 4.40625 -8.078125 C 5.53125 -8.078125 6.40625 -7.757812 7.03125 -7.125 C 7.65625 -6.488281 7.96875 -5.609375 7.96875 -4.484375 L 7.96875 -3.421875 L 2.84375 -3.421875 C 2.863281 -2.804688 3.046875 -2.328125 3.390625 -1.984375 C 3.734375 -1.640625 4.210938 -1.46875 4.828125 -1.46875 C 5.304688 -1.46875 5.753906 -1.515625 6.171875 -1.609375 C 6.597656 -1.710938 7.046875 -1.875 7.515625 -2.09375 L 7.515625 -0.421875 C 7.140625 -0.234375 6.734375 -0.09375 6.296875 0 C 5.867188 0.09375 5.34375 0.140625 4.71875 0.140625 Z M 4.71875 0.140625 "/></g></g></g><g fill="#ffffff" fill-opacity="1"><g transform="translate(163.541614, 62.563853)"><g><path d="M 8.453125 0 L 6.296875 0 L 6.296875 -4.640625 C 6.296875 -5.203125 6.191406 -5.625 5.984375 -5.90625 C 5.785156 -6.195312 5.460938 -6.34375 5.015625 -6.34375 C 4.410156 -6.34375 3.972656 -6.140625 3.703125 -5.734375 C 3.429688 -5.335938 3.296875 -4.671875 3.296875 -3.734375 L 3.296875 0 L 1.140625 0 L 1.140625 -7.9375 L 2.78125 -7.9375 L 3.078125 -6.921875 L 3.203125 -6.921875 C 3.441406 -7.304688 3.769531 -7.59375 4.1875 -7.78125 C 4.613281 -7.976562 5.097656 -8.078125 5.640625 -8.078125 C 6.566406 -8.078125 7.265625 -7.828125 7.734375 -7.328125 C 8.210938 -6.828125 8.453125 -6.109375 8.453125 -5.171875 Z M 8.453125 0 "/></g></g></g><g fill="#ffffff" fill-opacity="1"><g transform="translate(173.095556, 62.563853)"><g><path d="M 4.484375 -1.578125 C 4.859375 -1.578125 5.3125 -1.660156 5.84375 -1.828125 L 5.84375 -0.21875 C 5.300781 0.0195312 4.640625 0.140625 3.859375 0.140625 C 2.984375 0.140625 2.347656 -0.078125 1.953125 -0.515625 C 1.566406 -0.953125 1.375 -1.609375 1.375 -2.484375 L 1.375 -6.3125 L 0.328125 -6.3125 L 0.328125 -7.21875 L 1.53125 -7.953125 L 2.15625 -9.625 L 3.53125 -9.625 L 3.53125 -7.9375 L 5.75 -7.9375 L 5.75 -6.3125 L 3.53125 -6.3125 L 3.53125 -2.484375 C 3.53125 -2.171875 3.613281 -1.941406 3.78125 -1.796875 C 3.957031 -1.648438 4.191406 -1.578125 4.484375 -1.578125 Z M 4.484375 -1.578125 "/></g></g></g><g fill="#ffffff" fill-opacity="1"><g transform="translate(179.405707, 62.563853)"><g><path d="M 2.859375 -3.984375 C 2.859375 -3.191406 2.988281 -2.59375 3.25 -2.1875 C 3.507812 -1.789062 3.925781 -1.59375 4.5 -1.59375 C 5.082031 -1.59375 5.5 -1.789062 5.75 -2.1875 C 6 -2.59375 6.125 -3.191406 6.125 -3.984375 C 6.125 -4.765625 5.992188 -5.351562 5.734375 -5.75 C 5.484375 -6.144531 5.066406 -6.34375 4.484375 -6.34375 C 3.910156 -6.34375 3.492188 -6.144531 3.234375 -5.75 C 2.984375 -5.363281 2.859375 -4.773438 2.859375 -3.984375 Z M 8.34375 -3.984375 C 8.34375 -2.691406 8 -1.679688 7.3125 -0.953125 C 6.632812 -0.222656 5.691406 0.140625 4.484375 0.140625 C 3.710938 0.140625 3.035156 -0.0234375 2.453125 -0.359375 C 1.878906 -0.691406 1.4375 -1.171875 1.125 -1.796875 C 0.8125 -2.421875 0.65625 -3.148438 0.65625 -3.984375 C 0.65625 -5.273438 0.992188 -6.28125 1.671875 -7 C 2.347656 -7.71875 3.296875 -8.078125 4.515625 -8.078125 C 5.273438 -8.078125 5.945312 -7.910156 6.53125 -7.578125 C 7.113281 -7.253906 7.5625 -6.78125 7.875 -6.15625 C 8.1875 -5.539062 8.34375 -4.816406 8.34375 -3.984375 Z M 8.34375 -3.984375 "/></g></g></g><g fill="#ffffff" fill-opacity="1"><g transform="translate(85.907543, 45.132409)"><g><path d="M 3.5 -5.484375 L 4.234375 -5.484375 C 4.910156 -5.484375 5.414062 -5.617188 5.75 -5.890625 C 6.082031 -6.160156 6.25 -6.550781 6.25 -7.0625 C 6.25 -7.570312 6.109375 -7.953125 5.828125 -8.203125 C 5.546875 -8.453125 5.101562 -8.578125 4.5 -8.578125 L 3.5 -8.578125 Z M 8.46875 -7.140625 C 8.46875 -6.023438 8.117188 -5.171875 7.421875 -4.578125 C 6.722656 -3.984375 5.734375 -3.6875 4.453125 -3.6875 L 3.5 -3.6875 L 3.5 0 L 1.3125 0 L 1.3125 -10.375 L 4.625 -10.375 C 5.875 -10.375 6.828125 -10.101562 7.484375 -9.5625 C 8.140625 -9.019531 8.46875 -8.210938 8.46875 -7.140625 Z M 8.46875 -7.140625 "/></g></g></g><g fill="#ffffff" fill-opacity="1"><g transform="translate(95.035607, 45.132409)"><g><path d="M 5.5625 -8.078125 C 5.851562 -8.078125 6.097656 -8.054688 6.296875 -8.015625 L 6.125 -5.984375 C 5.957031 -6.035156 5.742188 -6.0625 5.484375 -6.0625 C 4.796875 -6.0625 4.257812 -5.882812 3.875 -5.53125 C 3.488281 -5.175781 3.296875 -4.675781 3.296875 -4.03125 L 3.296875 0 L 1.140625 0 L 1.140625 -7.9375 L 2.78125 -7.9375 L 3.09375 -6.59375 L 3.203125 -6.59375 C 3.441406 -7.039062 3.769531 -7.398438 4.1875 -7.671875 C 4.613281 -7.941406 5.070312 -8.078125 5.5625 -8.078125 Z M 5.5625 -8.078125 "/></g></g></g><g fill="#ffffff" fill-opacity="1"><g transform="translate(101.636772, 45.132409)"><g><path d="M 2.859375 -3.984375 C 2.859375 -3.191406 2.988281 -2.59375 3.25 -2.1875 C 3.507812 -1.789062 3.925781 -1.59375 4.5 -1.59375 C 5.082031 -1.59375 5.5 -1.789062 5.75 -2.1875 C 6 -2.59375 6.125 -3.191406 6.125 -3.984375 C 6.125 -4.765625 5.992188 -5.351562 5.734375 -5.75 C 5.484375 -6.144531 5.066406 -6.34375 4.484375 -6.34375 C 3.910156 -6.34375 3.492188 -6.144531 3.234375 -5.75 C 2.984375 -5.363281 2.859375 -4.773438 2.859375 -3.984375 Z M 8.34375 -3.984375 C 8.34375 -2.691406 8 -1.679688 7.3125 -0.953125 C 6.632812 -0.222656 5.691406 0.140625 4.484375 0.140625 C 3.710938 0.140625 3.035156 -0.0234375 2.453125 -0.359375 C 1.878906 -0.691406 1.4375 -1.171875 1.125 -1.796875 C 0.8125 -2.421875 0.65625 -3.148438 0.65625 -3.984375 C 0.65625 -5.273438 0.992188 -6.28125 1.671875 -7 C 2.347656 -7.71875 3.296875 -8.078125 4.515625 -8.078125 C 5.273438 -8.078125 5.945312 -7.910156 6.53125 -7.578125 C 7.113281 -7.253906 7.5625 -6.78125 7.875 -6.15625 C 8.1875 -5.539062 8.34375 -4.816406 8.34375 -3.984375 Z M 8.34375 -3.984375 "/></g></g></g><g fill="#ffffff" fill-opacity="1"><g transform="translate(110.637071, 45.132409)"><g><path d="M 0.5 3.484375 C -0.0507812 3.484375 -0.523438 3.425781 -0.921875 3.3125 L -0.921875 1.609375 C -0.597656 1.703125 -0.265625 1.75 0.078125 1.75 C 0.441406 1.75 0.707031 1.644531 0.875 1.4375 C 1.050781 1.238281 1.140625 0.941406 1.140625 0.546875 L 1.140625 -7.9375 L 3.296875 -7.9375 L 3.296875 0.859375 C 3.296875 1.703125 3.050781 2.347656 2.5625 2.796875 C 2.082031 3.253906 1.394531 3.484375 0.5 3.484375 Z M 1.046875 -9.984375 C 1.046875 -10.691406 1.4375 -11.046875 2.21875 -11.046875 C 3.007812 -11.046875 3.40625 -10.691406 3.40625 -9.984375 C 3.40625 -9.648438 3.304688 -9.390625 3.109375 -9.203125 C 2.910156 -9.015625 2.613281 -8.921875 2.21875 -8.921875 C 1.4375 -8.921875 1.046875 -9.273438 1.046875 -9.984375 Z M 1.046875 -9.984375 "/></g></g></g><g fill="#ffffff" fill-opacity="1"><g transform="translate(115.073339, 45.132409)"><g><path d="M 4.421875 -6.546875 C 3.960938 -6.546875 3.601562 -6.398438 3.34375 -6.109375 C 3.082031 -5.816406 2.929688 -5.40625 2.890625 -4.875 L 5.9375 -4.875 C 5.925781 -5.40625 5.785156 -5.816406 5.515625 -6.109375 C 5.242188 -6.398438 4.878906 -6.546875 4.421875 -6.546875 Z M 4.71875 0.140625 C 3.445312 0.140625 2.453125 -0.207031 1.734375 -0.90625 C 1.015625 -1.613281 0.65625 -2.613281 0.65625 -3.90625 C 0.65625 -5.238281 0.984375 -6.265625 1.640625 -6.984375 C 2.304688 -7.710938 3.226562 -8.078125 4.40625 -8.078125 C 5.53125 -8.078125 6.40625 -7.757812 7.03125 -7.125 C 7.65625 -6.488281 7.96875 -5.609375 7.96875 -4.484375 L 7.96875 -3.421875 L 2.84375 -3.421875 C 2.863281 -2.804688 3.046875 -2.328125 3.390625 -1.984375 C 3.734375 -1.640625 4.210938 -1.46875 4.828125 -1.46875 C 5.304688 -1.46875 5.753906 -1.515625 6.171875 -1.609375 C 6.597656 -1.710938 7.046875 -1.875 7.515625 -2.09375 L 7.515625 -0.421875 C 7.140625 -0.234375 6.734375 -0.09375 6.296875 0 C 5.867188 0.09375 5.34375 0.140625 4.71875 0.140625 Z M 4.71875 0.140625 "/></g></g></g><g fill="#ffffff" fill-opacity="1"><g transform="translate(123.661952, 45.132409)"><g><path d="M 4.484375 -1.578125 C 4.859375 -1.578125 5.3125 -1.660156 5.84375 -1.828125 L 5.84375 -0.21875 C 5.300781 0.0195312 4.640625 0.140625 3.859375 0.140625 C 2.984375 0.140625 2.347656 -0.078125 1.953125 -0.515625 C 1.566406 -0.953125 1.375 -1.609375 1.375 -2.484375 L 1.375 -6.3125 L 0.328125 -6.3125 L 0.328125 -7.21875 L 1.53125 -7.953125 L 2.15625 -9.625 L 3.53125 -9.625 L 3.53125 -7.9375 L 5.75 -7.9375 L 5.75 -6.3125 L 3.53125 -6.3125 L 3.53125 -2.484375 C 3.53125 -2.171875 3.613281 -1.941406 3.78125 -1.796875 C 3.957031 -1.648438 4.191406 -1.578125 4.484375 -1.578125 Z M 4.484375 -1.578125 "/></g></g></g><g fill="#ffffff" fill-opacity="1"><g transform="translate(129.9721, 45.132409)"><g><path d="M 2.859375 -3.984375 C 2.859375 -3.191406 2.988281 -2.59375 3.25 -2.1875 C 3.507812 -1.789062 3.925781 -1.59375 4.5 -1.59375 C 5.082031 -1.59375 5.5 -1.789062 5.75 -2.1875 C 6 -2.59375 6.125 -3.191406 6.125 -3.984375 C 6.125 -4.765625 5.992188 -5.351562 5.734375 -5.75 C 5.484375 -6.144531 5.066406 -6.34375 4.484375 -6.34375 C 3.910156 -6.34375 3.492188 -6.144531 3.234375 -5.75 C 2.984375 -5.363281 2.859375 -4.773438 2.859375 -3.984375 Z M 8.34375 -3.984375 C 8.34375 -2.691406 8 -1.679688 7.3125 -0.953125 C 6.632812 -0.222656 5.691406 0.140625 4.484375 0.140625 C 3.710938 0.140625 3.035156 -0.0234375 2.453125 -0.359375 C 1.878906 -0.691406 1.4375 -1.171875 1.125 -1.796875 C 0.8125 -2.421875 0.65625 -3.148438 0.65625 -3.984375 C 0.65625 -5.273438 0.992188 -6.28125 1.671875 -7 C 2.347656 -7.71875 3.296875 -8.078125 4.515625 -8.078125 C 5.273438 -8.078125 5.945312 -7.910156 6.53125 -7.578125 C 7.113281 -7.253906 7.5625 -6.78125 7.875 -6.15625 C 8.1875 -5.539062 8.34375 -4.816406 8.34375 -3.984375 Z M 8.34375 -3.984375 "/></g></g></g></svg>